<svg width="25" height="26" viewBox="0 0 25 26" fill="none" xmlns="http://www.w3.org/2000/svg">
<g id="ellipsis-horizontal-circle">
<path id="Vector" d="M12.5 14.2695C13.2011 14.2695 13.7695 13.7011 13.7695 13C13.7695 12.2989 13.2011 11.7305 12.5 11.7305C11.7989 11.7305 11.2305 12.2989 11.2305 13C11.2305 13.7011 11.7989 14.2695 12.5 14.2695Z" fill="#2F80ED"/>
<path id="Vector_2" d="M16.8945 14.2695C17.5957 14.2695 18.1641 13.7011 18.1641 13C18.1641 12.2989 17.5957 11.7305 16.8945 11.7305C16.1934 11.7305 15.625 12.2989 15.625 13C15.625 13.7011 16.1934 14.2695 16.8945 14.2695Z" fill="#2F80ED"/>
<path id="Vector_3" d="M8.10547 14.2695C8.80661 14.2695 9.375 13.7011 9.375 13C9.375 12.2989 8.80661 11.7305 8.10547 11.7305C7.40433 11.7305 6.83594 12.2989 6.83594 13C6.83594 13.7011 7.40433 14.2695 8.10547 14.2695Z" fill="#2F80ED"/>
<path id="Vector_4" d="M21.875 13C21.875 7.82422 17.6758 3.625 12.5 3.625C7.32422 3.625 3.125 7.82422 3.125 13C3.125 18.1758 7.32422 22.375 12.5 22.375C17.6758 22.375 21.875 18.1758 21.875 13Z" stroke="#2F80ED" strokeWidth="1.5" stroke-miterlimit="10"/>
</g>
</svg>
