<svg width="20" height="21" viewBox="0 0 20 21" fill="none" xmlns="http://www.w3.org/2000/svg">
<g id="Layout/grid-8">
<g id="Icon">
<path fillRule="evenodd" clipRule="evenodd" d="M4.37502 3H6.95002C7.44875 3 7.92693 3.19868 8.2788 3.55212C8.63067 3.90555 8.82723 4.38461 8.82502 4.88333V7.45C8.82502 8.48553 7.98555 9.325 6.95002 9.325H4.37502C3.33948 9.325 2.50002 8.48553 2.50002 7.45V4.88333C2.4978 4.38461 2.69437 3.90555 3.04624 3.55212C3.39811 3.19868 3.87629 3 4.37502 3ZM6.95002 8.06667C7.29332 8.06218 7.57053 7.78497 7.57502 7.44167V4.88333C7.57502 4.53816 7.2952 4.25833 6.95002 4.25833H4.37502C4.02984 4.25833 3.75002 4.53816 3.75002 4.88333V7.44167C3.75451 7.78497 4.03172 8.06218 4.37502 8.06667H6.95002Z" fill="#6B7684"/>
<path fillRule="evenodd" clipRule="evenodd" d="M13.05 3H15.625C16.1238 3 16.6019 3.19868 16.9538 3.55212C17.3057 3.90555 17.5023 4.38461 17.5 4.88333V7.45C17.5 8.48553 16.6606 9.325 15.625 9.325H13.05C12.0145 9.325 11.175 8.48553 11.175 7.45V4.875C11.175 3.83947 12.0145 3 13.05 3ZM15.625 8.06667C15.9683 8.06218 16.2455 7.78497 16.25 7.44167V4.88333C16.25 4.53816 15.9702 4.25833 15.625 4.25833H13.05C12.7049 4.25833 12.425 4.53816 12.425 4.88333V7.44167C12.4295 7.78497 12.7067 8.06218 13.05 8.06667H15.625Z" fill="#6B7684"/>
<path fillRule="evenodd" clipRule="evenodd" d="M4.37502 11.675H6.95002C7.98555 11.675 8.82502 12.5145 8.82502 13.55V16.125C8.82502 17.1605 7.98555 18 6.95002 18H4.37502C3.87629 18 3.39811 17.8013 3.04624 17.4479C2.69437 17.0944 2.4978 16.6154 2.50002 16.1167V13.55C2.50002 12.5145 3.33948 11.675 4.37502 11.675ZM6.95002 16.7417C7.2952 16.7417 7.57502 16.4618 7.57502 16.1167V13.55C7.57053 13.2067 7.29332 12.9295 6.95002 12.925H4.37502C4.03172 12.9295 3.75451 13.2067 3.75002 13.55V16.1167C3.75002 16.4618 4.02984 16.7417 4.37502 16.7417H6.95002Z" fill="#6B7684"/>
<path fillRule="evenodd" clipRule="evenodd" d="M13.05 11.675H15.625C16.6606 11.675 17.5 12.5145 17.5 13.55V16.1167C17.5022 16.6154 17.3057 17.0944 16.9538 17.4479C16.6019 17.8013 16.1237 18 15.625 18H13.05C12.5513 18 12.0731 17.8013 11.7212 17.4479C11.3694 17.0944 11.1728 16.6154 11.175 16.1167V13.55C11.175 12.5145 12.0145 11.675 13.05 11.675ZM15.625 16.7417C15.9702 16.7417 16.25 16.4618 16.25 16.1167V13.55C16.2455 13.2067 15.9683 12.9295 15.625 12.925H13.05C12.7067 12.9295 12.4295 13.2067 12.425 13.55V16.1167C12.425 16.4618 12.7048 16.7417 13.05 16.7417H15.625Z" fill="#6B7684"/>
</g>
</g>
</svg>
